<svg data-v-fde0c5aa="" xmlns="http://www.w3.org/2000/svg" viewBox="0 0 300 300" class="font"><!----><defs data-v-fde0c5aa=""><!----></defs><rect data-v-fde0c5aa="" fill="#4A4A4A" x="0" y="0" width="300px" height="300px" class="logo-background-square"></rect><defs data-v-fde0c5aa=""><!----></defs><g data-v-fde0c5aa="" id="f2658830-acd0-461d-a6df-178af228cb6c" fill="#ffffff" transform="matrix(3.008752622212994,0,0,3.008752622212994,39.36816192422828,129.66083230253383)"><path d="M5.28 2.21L5.28 8.37C5.28 9.32 5.04 10.57 3.36 10.57C2.04 10.57 1.41 9.73 1.30 9.00L0.21 9.00C0.34 10.26 1.30 11.59 3.30 11.59C5.54 11.59 6.33 10.04 6.33 8.41L6.33 2.21ZM11.12 4.37C9.07 4.37 7.73 5.98 7.73 7.98C7.73 9.98 9.07 11.59 11.12 11.59C12.28 11.59 13.10 11.12 13.62 10.36L13.62 11.48L14.67 11.48L14.67 4.48L13.62 4.48L13.62 5.61C13.10 4.86 12.28 4.37 11.12 4.37ZM11.26 10.64C9.70 10.64 8.78 9.42 8.78 7.98C8.78 6.54 9.70 5.32 11.26 5.32C12.81 5.32 13.68 6.54 13.68 7.98C13.68 9.42 12.81 10.64 11.26 10.64ZM21.21 4.48L19.01 10.36L16.80 4.48L15.65 4.48L18.40 11.48L19.63 11.48L22.36 4.48ZM26.21 4.37C24.16 4.37 22.82 5.98 22.82 7.98C22.82 9.98 24.16 11.59 26.21 11.59C27.37 11.59 28.20 11.12 28.71 10.36L28.71 11.48L29.76 11.48L29.76 4.48L28.71 4.48L28.71 5.61C28.20 4.86 27.37 4.37 26.21 4.37ZM26.35 10.64C24.79 10.64 23.87 9.42 23.87 7.98C23.87 6.54 24.79 5.32 26.35 5.32C27.90 5.32 28.77 6.54 28.77 7.98C28.77 9.42 27.90 10.64 26.35 10.64ZM34.73 10.64C33.18 10.64 32.20 9.42 32.20 7.98C32.20 6.54 33.18 5.32 34.73 5.32C35.73 5.32 36.44 5.88 36.76 6.68L37.90 6.68C37.49 5.32 36.25 4.37 34.59 4.37C32.49 4.37 31.15 5.98 31.15 7.98C31.15 9.98 32.49 11.59 34.59 11.59C36.25 11.59 37.49 10.64 37.90 9.28L36.76 9.28C36.44 10.08 35.73 10.64 34.73 10.64ZM42.32 10.64C40.91 10.64 40.00 9.65 39.84 8.40L45.71 8.40L45.71 7.98C45.71 5.98 44.38 4.37 42.24 4.37C40.10 4.37 38.77 5.98 38.77 7.98C38.77 9.98 40.17 11.59 42.31 11.59C43.97 11.59 45.01 10.72 45.50 9.46L44.35 9.46C43.97 10.16 43.30 10.64 42.32 10.64ZM42.24 5.32C43.58 5.32 44.42 6.23 44.62 7.42L39.86 7.42C40.05 6.23 40.89 5.32 42.24 5.32ZM47.00 4.48L47.00 11.48L48.05 11.48L48.05 7.45C48.05 6.19 49 5.32 50.16 5.32C51.31 5.32 52.12 6.16 52.12 7.43L52.12 11.48L53.17 11.48L53.17 7.41C53.17 5.42 51.81 4.37 50.37 4.37C49.24 4.37 48.55 4.90 48.05 5.57L48.05 4.48ZM56.56 11.48L56.56 5.40L58.17 5.40L58.17 4.48L56.56 4.48L56.56 1.97L55.51 1.97L55.51 4.48L54.08 4.48L54.08 5.40L55.51 5.40L55.51 11.48ZM62.94 4.37C61.21 4.37 60.51 5.73 60.37 6.20L60.37 4.48L59.32 4.48L59.32 11.48L60.37 11.48L60.37 8.40C60.37 6.86 61.32 5.42 62.89 5.42L63.01 5.42L63.01 4.37ZM64.15 11.48L65.20 11.48L65.20 4.48L64.15 4.48ZM64.11 1.93L64.11 3.30L65.24 3.30L65.24 1.93ZM70.17 10.64C68.61 10.64 67.63 9.42 67.63 7.98C67.63 6.54 68.61 5.32 70.17 5.32C71.16 5.32 71.88 5.88 72.20 6.68L73.33 6.68C72.93 5.32 71.68 4.37 70.03 4.37C67.93 4.37 66.58 5.98 66.58 7.98C66.58 9.98 67.93 11.59 70.03 11.59C71.68 11.59 72.93 10.64 73.33 9.28L72.20 9.28C71.88 10.08 71.16 10.64 70.17 10.64Z"></path></g><!----><!----></svg>